<?xml version="1.0" encoding="utf-8"?>
<!-- Generator: Adobe Illustrator 15.0.0, SVG Export Plug-In . SVG Version: 6.00 Build 0)  -->
<!DOCTYPE svg PUBLIC "-//W3C//DTD SVG 1.1//EN" "http://www.w3.org/Graphics/SVG/1.1/DTD/svg11.dtd">
<svg version="1.1" id="图层_1" xmlns="http://www.w3.org/2000/svg" xmlns:xlink="http://www.w3.org/1999/xlink" x="0px" y="0px"
	 width="110px" height="110px" viewBox="0 0 110 110" enable-background="new 0 0 110 110" xml:space="preserve">
<g>
	<linearGradient id="SVGID_1_" gradientUnits="userSpaceOnUse" x1="19.7915" y1="44.854" x2="103.9313" y2="93.4322">
		<stop  offset="0" style="stop-color:#E14297"/>
		<stop  offset="0.6629" style="stop-color:#A5005B"/>
		<stop  offset="1" style="stop-color:#82002A"/>
	</linearGradient>
	<path fill="url(#SVGID_1_)" d="M99.306,89.244L99.306,89.244l-0.018-0.048c-0.033-0.083-0.065-0.167-0.101-0.249L67.593,9.88
		C65.36,4.302,59.91,0.36,53.535,0.36S41.709,4.302,39.479,9.88L13.815,74.102c-0.04,0.092-0.075,0.187-0.112,0.279L7.882,88.947
		c-0.034,0.082-0.064,0.164-0.098,0.246l-0.021,0.051l0,0c-0.695,1.738-1.082,3.633-1.082,5.619c0,8.359,6.777,15.137,15.138,15.137
		c6.375,0,11.825-3.942,14.057-9.521l0,0l2.127-5.321h31.062l2.128,5.321l0,0C73.425,106.058,78.875,110,85.25,110
		c8.36,0,15.139-6.777,15.139-15.137C100.389,92.877,100.001,90.982,99.306,89.244z M56.968,64.883h-6.866l3.434-8.59L56.968,64.883
		z"/>
	<linearGradient id="SVGID_2_" gradientUnits="userSpaceOnUse" x1="45.2109" y1="73.4531" x2="50.3758" y2="76.4351">
		<stop  offset="0" style="stop-color:#E14297"/>
		<stop  offset="1" style="stop-color:#A5005B"/>
	</linearGradient>
	<ellipse fill="url(#SVGID_2_)" cx="47.771" cy="74.931" rx="2.813" ry="3.563"/>
	<linearGradient id="SVGID_3_" gradientUnits="userSpaceOnUse" x1="51.8872" y1="74.0732" x2="57.2313" y2="77.1587">
		<stop  offset="0" style="stop-color:#E14297"/>
		<stop  offset="1" style="stop-color:#A5005B"/>
	</linearGradient>
	<ellipse fill="url(#SVGID_3_)" cx="54.536" cy="75.603" rx="2.953" ry="3.609"/>
	<linearGradient id="SVGID_4_" gradientUnits="userSpaceOnUse" x1="28.6904" y1="50.7393" x2="93.3802" y2="88.0879">
		<stop  offset="0" style="stop-color:#E47DB1"/>
		<stop  offset="1" style="stop-color:#A5005B"/>
	</linearGradient>
	<path fill="url(#SVGID_4_)" d="M28.865,73.504c0,1.449-1.175,2.625-2.625,2.625s-2.625-1.176-2.625-2.625s1.175-2.625,2.625-2.625
		S28.865,72.055,28.865,73.504z M17.333,77.314c-2.641,0-4.782,2.141-4.782,4.782s2.141,4.782,4.782,4.782s4.782-2.141,4.782-4.782
		S19.974,77.314,17.333,77.314z M29.99,82.379c-1.45,0-2.625,1.176-2.625,2.625s1.175,2.625,2.625,2.625
		c1.449,0,2.625-1.176,2.625-2.625S31.439,82.379,29.99,82.379z M38.642,64.665c-2.608,0-4.724,2.114-4.724,4.724
		c0,2.608,2.115,4.723,4.724,4.723s4.724-2.114,4.724-4.723C43.365,66.779,41.25,64.665,38.642,64.665z M42.465,53.95
		c-2.568,0-4.65,2.082-4.65,4.65c0,2.569,2.082,4.651,4.65,4.651s4.65-2.082,4.65-4.651C47.115,56.032,45.033,53.95,42.465,53.95z
		 M44.615,38.379c-0.828,0-1.5,0.672-1.5,1.5s0.672,1.5,1.5,1.5s1.5-0.672,1.5-1.5S45.443,38.379,44.615,38.379z M43.865,31.129
		c-1.242,0-2.25,1.008-2.25,2.25s1.008,2.25,2.25,2.25s2.25-1.008,2.25-2.25S45.107,31.129,43.865,31.129z M50.24,50.129
		c-1.312,0-2.375,1.063-2.375,2.375s1.063,2.375,2.375,2.375s2.375-1.063,2.375-2.375S51.552,50.129,50.24,50.129z M51.865,34.629
		c-0.828,0-1.5,0.672-1.5,1.5s0.672,1.5,1.5,1.5s1.5-0.672,1.5-1.5S52.693,34.629,51.865,34.629z M66.966,66.631
		c-2.125,0-3.848,1.723-3.848,3.848s1.723,3.848,3.848,3.848s3.848-1.723,3.848-3.848S69.091,66.631,66.966,66.631z M81.49,82.879
		c-1.312,0-2.375,1.063-2.375,2.375s1.063,2.375,2.375,2.375s2.375-1.063,2.375-2.375S82.802,82.879,81.49,82.879z M89.271,81.441
		c-0.881,0-1.594,0.713-1.594,1.594s0.713,1.594,1.594,1.594s1.594-0.713,1.594-1.594S90.152,81.441,89.271,81.441z M73.209,82.129
		c-1.709,0-3.094,1.385-3.094,3.094s1.385,3.094,3.094,3.094s3.094-1.385,3.094-3.094S74.918,82.129,73.209,82.129z M81.428,71.379
		c-2.83,0-5.125,2.295-5.125,5.125s2.295,5.125,5.125,5.125s5.125-2.295,5.125-5.125S84.258,71.379,81.428,71.379z M87.74,91.379
		c-1.174,0-2.125,0.951-2.125,2.125s0.951,2.125,2.125,2.125s2.125-0.951,2.125-2.125S88.914,91.379,87.74,91.379z M61.115,35.129
		c-0.828,0-1.5,0.672-1.5,1.5s0.672,1.5,1.5,1.5s1.5-0.672,1.5-1.5S61.943,35.129,61.115,35.129z M47.74,18.629
		c-1.174,0-2.125,0.951-2.125,2.125s0.951,2.125,2.125,2.125s2.125-0.951,2.125-2.125S48.914,18.629,47.74,18.629z"/>
	<path fill="#480009" d="M33.333,73.129c0,0,7,7.75,19.75,7.75s18.5-5.75,18.5-5.75s-3.75,14.125-21.25,14.125
		S33.333,73.129,33.333,73.129z"/>
	<g>
		<path fill="#B9004B" d="M103.656,54.51c-1.436,12.08-11.214,20.841-21.843,19.576c-10.631-1.264-18.082-12.075-16.647-24.15
			c1.441-12.074,11.544-23.544,22.177-22.277C97.967,28.922,105.094,42.445,103.656,54.51z"/>
		<g>
			
				<linearGradient id="SVGID_5_" gradientUnits="userSpaceOnUse" x1="12.5762" y1="-97.9653" x2="51.1557" y2="-75.6914" gradientTransform="matrix(0.993 0.1181 -0.1181 0.993 40.2199 140.2838)">
				<stop  offset="0" style="stop-color:#D0DBE2"/>
				<stop  offset="0.2978" style="stop-color:#FFFFFF"/>
				<stop  offset="1" style="stop-color:#BCCBD4"/>
			</linearGradient>
			<path fill="url(#SVGID_5_)" d="M103.535,60.334C101.869,74.323,90.9,84.526,79.032,83.107
				c-11.868-1.409-20.142-13.898-18.477-27.893c1.663-13.993,12.636-24.192,24.503-22.778
				C96.93,33.849,105.199,46.336,103.535,60.334z"/>
			<g>
				
					<linearGradient id="SVGID_6_" gradientUnits="userSpaceOnUse" x1="25.96" y1="-83.1978" x2="44.7893" y2="-72.3267" gradientTransform="matrix(0.993 0.1181 -0.1181 0.993 40.2199 140.2838)">
					<stop  offset="0" style="stop-color:#00A6D8"/>
					<stop  offset="1" style="stop-color:#2C3F7E"/>
				</linearGradient>
				<path fill="url(#SVGID_6_)" d="M95.363,68.483c-0.703,5.922-6.162,10.138-12.188,9.421c-6.021-0.718-10.341-6.098-9.636-12.02
					c0.703-5.922,6.161-10.135,12.187-9.42C91.754,57.185,96.066,62.562,95.363,68.483z"/>
				<path fill="#001438" d="M90.031,67.848c-0.35,2.959-3.139,5.065-6.223,4.699c-3.078-0.367-5.286-3.068-4.935-6.028
					c0.352-2.958,3.135-5.059,6.216-4.696C88.169,62.193,90.383,64.893,90.031,67.848z"/>
			</g>
			<path fill="#FFFFFF" d="M87.76,57.281c-0.335,2.834-2.717,4.882-5.319,4.571s-4.438-2.854-4.101-5.696
				c0.335-2.834,2.717-4.877,5.324-4.57C86.264,51.895,88.098,54.445,87.76,57.281z"/>
			<path fill="#FFFFFF" d="M72.262,49.119c-0.203,1.747-1.768,2.998-3.476,2.795c-1.71-0.205-2.931-1.788-2.726-3.535
				c0.209-1.747,1.77-3.001,3.476-2.799C71.248,45.785,72.474,47.369,72.262,49.119z"/>
		</g>
	</g>
	<linearGradient id="SVGID_7_" gradientUnits="userSpaceOnUse" x1="41.2813" y1="80.2168" x2="59.9938" y2="91.0205">
		<stop  offset="0" style="stop-color:#787024"/>
		<stop  offset="1" style="stop-color:#00430A"/>
	</linearGradient>
	<path fill="url(#SVGID_7_)" d="M62.682,86.17c-1.41-2.392-6.508-4.166-12.599-4.166c-5.229,0-9.727,1.31-11.79,3.193
		c2.52,2.324,6.312,4.057,12.04,4.057C55.611,89.254,59.631,87.965,62.682,86.17z"/>
	<linearGradient id="SVGID_8_" gradientUnits="userSpaceOnUse" x1="36.5239" y1="77.5986" x2="39.0958" y2="79.0835">
		<stop  offset="0" style="stop-color:#D9BD6D"/>
		<stop  offset="1" style="stop-color:#97713C"/>
	</linearGradient>
	<polygon fill="url(#SVGID_8_)" points="37.264,76.291 39.632,77.662 38.333,80.379 	"/>
	<linearGradient id="SVGID_9_" gradientUnits="userSpaceOnUse" x1="65.0195" y1="78.7314" x2="66.7837" y2="79.75">
		<stop  offset="0" style="stop-color:#D9BD6D"/>
		<stop  offset="1" style="stop-color:#97713C"/>
	</linearGradient>
	<polygon fill="url(#SVGID_9_)" points="64.896,78.929 67.34,77.894 65.833,81.379 	"/>
	<ellipse fill="#001438" cx="48.458" cy="75.993" rx="1" ry="1.75"/>
	<ellipse fill="#001438" cx="54.458" cy="76.181" rx="1" ry="1.563"/>
	<g>
		<path fill="#B9004B" d="M39.35,52.125c1.523,7.393-2.516,14.473-9.02,15.811c-6.512,1.343-13.019-3.562-14.542-10.953
			c-1.523-7.392,2.177-16.125,8.687-17.469C30.978,38.173,37.826,44.734,39.35,52.125z"/>
		<g>
			
				<linearGradient id="SVGID_10_" gradientUnits="userSpaceOnUse" x1="-162.3608" y1="-254.3838" x2="-138.4166" y2="-240.5596" gradientTransform="matrix(0.9794 -0.2019 0.2019 0.9794 224.6269 270.3327)">
				<stop  offset="0" style="stop-color:#D0DBE2"/>
				<stop  offset="0.2978" style="stop-color:#FFFFFF"/>
				<stop  offset="1" style="stop-color:#BCCBD4"/>
			</linearGradient>
			<path fill="url(#SVGID_10_)" d="M40.418,55.574c1.766,8.567-2.689,16.728-9.954,18.225c-7.268,1.496-14.59-4.234-16.355-12.803
				c-1.766-8.566,2.695-16.725,9.961-18.221C31.333,41.281,38.652,47.008,40.418,55.574z"/>
			<g>
				
					<linearGradient id="SVGID_11_" gradientUnits="userSpaceOnUse" x1="-153.8975" y1="-245.1279" x2="-142.5605" y2="-238.5825" gradientTransform="matrix(0.9794 -0.2019 0.2019 0.9794 224.6269 270.3327)">
					<stop  offset="0" style="stop-color:#00A6D8"/>
					<stop  offset="1" style="stop-color:#2C3F7E"/>
				</linearGradient>
				<path fill="url(#SVGID_11_)" d="M37.208,61.977c0.746,3.625-1.639,7.181-5.332,7.941c-3.684,0.76-7.283-1.563-8.027-5.188
					c-0.752-3.622,1.638-7.173,5.328-7.937C32.862,56.035,36.455,58.355,37.208,61.977z"/>
				<path fill="#001438" d="M33.945,62.651c0.368,1.81-0.857,3.597-2.744,3.985c-1.884,0.387-3.714-0.766-4.088-2.577
					c-0.374-1.813,0.853-3.597,2.738-3.987C31.736,59.688,33.572,60.84,33.945,62.651z"/>
			</g>
			<path fill="#FFFFFF" d="M30.533,56.873c0.354,1.735-0.641,3.408-2.234,3.737c-1.597,0.327-3.178-0.81-3.533-2.549
				c-0.36-1.735,0.641-3.407,2.236-3.737C28.595,54,30.174,55.137,30.533,56.873z"/>
			
				<ellipse transform="matrix(0.9794 -0.202 0.202 0.9794 -10.8441 4.7629)" fill="#FFFFFF" cx="17.908" cy="55.499" rx="1.938" ry="1.979"/>
		</g>
	</g>
</g>
</svg>
